name Walk8.mot
datacolumns 19
datarows 10
range 1.05600000 1.06500000
endheader

                time	   L_ground_force_vx	   L_ground_force_vy	   L_ground_force_vz	   L_ground_force_px	   L_ground_force_py	   L_ground_force_pz	   R_ground_force_vx	   R_ground_force_vy	   R_ground_force_vz	   R_ground_force_px	   R_ground_force_py	   R_ground_force_pz	   L_ground_torque_x	   L_ground_torque_y	   L_ground_torque_z	   R_ground_torque_x	   R_ground_torque_y	   R_ground_torque_z	
          1.05600000	         -2.34436805	         56.64949871	         -4.70422916	          0.00105261	          0.00000000	          0.00221324	         -0.00000000	          0.00000000	         -0.00000000	          0.00000000	          0.00000000	          0.00000000	          0.00000000	          0.09134273	          0.00000000	          0.00000000	          0.00000000	          0.00000000	
          1.05700000	         -2.92978902	         61.96109529	         -4.94962131	         -0.01826097	          0.00000000	         -0.00044167	         -0.00000000	          0.00000000	         -0.00000000	          0.00000000	          0.00000000	          0.00000000	          0.00000000	          0.09973777	          0.00000000	          0.00000000	          0.00000000	          0.00000000	
          1.05800000	         -3.52940142	         67.40000542	         -5.20023542	         -0.03750647	          0.00000000	         -0.00308893	         -0.00000000	          0.00000000	         -0.00000000	          0.00000000	          0.00000000	          0.00000000	          0.00000000	          0.10855048	          0.00000000	          0.00000000	          0.00000000	          0.00000000	
          1.05900000	         -4.14257249	         72.95771499	         -5.45547014	         -0.05662684	          0.00000000	         -0.00572100	         -0.00000000	          0.00000000	         -0.00000000	          0.00000000	          0.00000000	          0.00000000	          0.00000000	          0.11778255	          0.00000000	          0.00000000	          0.00000000	          0.00000000	
          1.06000000	         -4.76861682	         78.62466409	         -5.71464254	         -0.07556490	          0.00000000	         -0.00833033	         -0.00000000	          0.00000000	         -0.00000000	          0.00000000	          0.00000000	          0.00000000	          0.00000000	          0.12743395	          0.00000000	          0.00000000	          0.00000000	          0.00000000	
          1.06100000	         -5.40679894	         84.39019685	         -5.97698261	         -0.09426481	          0.00000000	         -0.01090959	         -0.00000000	          0.00000000	         -0.00000000	          0.00000000	          0.00000000	         -0.00000000	          0.00000000	          0.13750276	          0.00000000	          0.00000000	          0.00000000	          0.00000000	
          1.06200000	         -6.05634921	         90.24256104	         -6.24162615	         -0.11267437	          0.00000000	         -0.01345201	         -0.00000000	          0.00000000	         -0.00000000	         -0.00000000	          0.00000000	         -0.00000000	          0.00000000	          0.14798489	          0.00000000	          0.00000000	          0.00000000	          0.00000000	
          1.06300000	         -6.71648873	         96.16896166	         -6.50760734	         -0.13074653	          0.00000000	         -0.01595154	         -0.00000000	          0.00000000	         -0.00000000	         -0.00000000	          0.00000000	         -0.00000000	          0.00000000	          0.15887389	          0.00000000	          0.00000000	          0.00000000	          0.00000000	
          1.06400000	         -7.38645840	        102.15566935	         -6.77385215	         -0.14843948	          0.00000000	         -0.01840293	         -0.00000000	          0.00000000	         -0.00000000	         -0.00000000	          0.00000000	         -0.00000000	          0.00000000	          0.17016094	          0.00000000	          0.00000000	          0.00000000	          0.00000000	
          1.06500000	         -8.06555158	        108.18819213	         -7.03917283	         -0.16571637	          0.00000000	         -0.02080165	         -0.00000000	          0.00000000	         -0.00000000	         -0.00000000	          0.00000000	         -0.00000000	          0.00000000	          0.18183500	          0.00000000	          0.00000000	          0.00000000	          0.00000000	
